<svg width="41" height="41" viewBox="0 0 41 41" fill="none" xmlns="http://www.w3.org/2000/svg">
<g clip-path="url(#clip0_235_71)">
<path d="M33 0.5C35.066 0.5 36.8325 1.23351 38.2995 2.70052C39.7665 4.16753 40.5 5.93403 40.5 8V33C40.5 35.066 39.7665 36.8325 38.2995 38.2995C36.8325 39.7665 35.066 40.5 33 40.5H28.1042V25.0052H33.2865L34.0677 18.9635H28.1042V15.1094C28.1042 14.1372 28.3082 13.408 28.7161 12.9219C29.1241 12.4358 29.9184 12.1927 31.099 12.1927L34.276 12.1667V6.77604C33.1823 6.61979 31.6372 6.54167 29.6406 6.54167C27.2795 6.54167 25.3915 7.23611 23.9766 8.625C22.5616 10.0139 21.8542 11.9757 21.8542 14.5104V18.9635H16.6458V25.0052H21.8542V40.5H8C5.93403 40.5 4.16753 39.7665 2.70052 38.2995C1.23351 36.8325 0.5 35.066 0.5 33V8C0.5 5.93403 1.23351 4.16753 2.70052 2.70052C4.16753 1.23351 5.93403 0.5 8 0.5H33Z" fill="white"/>
</g>
<defs>
<clipPath id="clip0_235_71">
<rect width="40" height="40" fill="white" transform="translate(0.5 0.5)"/>
</clipPath>
</defs>
</svg>
