<svg width="41" height="41" viewBox="0 0 41 41" fill="none" xmlns="http://www.w3.org/2000/svg">
<path d="M36.2143 0.5H4.78571C2.41964 0.5 0.5 2.41964 0.5 4.78571V36.2143C0.5 38.5804 2.41964 40.5 4.78571 40.5H36.2143C38.5804 40.5 40.5 38.5804 40.5 36.2143V4.78571C40.5 2.41964 38.5804 0.5 36.2143 0.5ZM25.2589 34.7589C24.5089 34.8929 24.2321 34.4286 24.2321 34.0446C24.2321 33.5625 24.25 31.0982 24.25 29.1071C24.25 27.7143 23.7857 26.8304 23.2411 26.3661C26.5446 26 30.0268 25.5446 30.0268 19.8393C30.0268 18.2143 29.4464 17.4018 28.5 16.3571C28.6518 15.9732 29.1607 14.3929 28.3482 12.3393C27.1071 11.9554 24.2679 13.9375 24.2679 13.9375C23.0893 13.6071 21.8125 13.4375 20.5536 13.4375C19.2946 13.4375 18.0179 13.6071 16.8393 13.9375C16.8393 13.9375 14 11.9554 12.7589 12.3393C11.9464 14.3839 12.4464 15.9643 12.6071 16.3571C11.6607 17.4018 11.2143 18.2143 11.2143 19.8393C11.2143 25.5179 14.5446 26 17.8482 26.3661C17.4196 26.75 17.0357 27.4107 16.9018 28.3571C16.0536 28.7411 13.8839 29.4018 12.5893 27.1161C11.7768 25.7054 10.3125 25.5893 10.3125 25.5893C8.86607 25.5714 10.2143 26.5 10.2143 26.5C11.1786 26.9464 11.8571 28.6607 11.8571 28.6607C12.7232 31.3125 16.8661 30.4196 16.8661 30.4196C16.8661 31.6607 16.8839 33.6786 16.8839 34.0446C16.8839 34.4286 16.6161 34.8929 15.8571 34.7589C9.96429 32.7857 5.83929 27.1786 5.83929 20.625C5.83929 12.4286 12.1071 6.20536 20.3036 6.20536C28.5 6.20536 35.1429 12.4286 35.1429 20.625C35.1518 27.1786 31.1518 32.7946 25.2589 34.7589ZM16.5 29.3036C16.3304 29.3393 16.1696 29.2679 16.1518 29.1518C16.1339 29.0179 16.25 28.9018 16.4196 28.8661C16.5893 28.8482 16.75 28.9196 16.7679 29.0357C16.7946 29.1518 16.6786 29.2679 16.5 29.3036ZM15.6518 29.2232C15.6518 29.3393 15.5179 29.4375 15.3393 29.4375C15.1429 29.4554 15.0089 29.3571 15.0089 29.2232C15.0089 29.1071 15.1429 29.0089 15.3214 29.0089C15.4911 28.9911 15.6518 29.0893 15.6518 29.2232ZM14.4286 29.125C14.3929 29.2411 14.2143 29.2946 14.0625 29.2411C13.8929 29.2054 13.7768 29.0714 13.8125 28.9554C13.8482 28.8393 14.0268 28.7857 14.1786 28.8214C14.3571 28.875 14.4732 29.0089 14.4286 29.125ZM13.3304 28.6429C13.25 28.7411 13.0804 28.7232 12.9464 28.5893C12.8125 28.4732 12.7768 28.3036 12.8661 28.2232C12.9464 28.125 13.1161 28.1429 13.25 28.2768C13.3661 28.3929 13.4107 28.5714 13.3304 28.6429ZM12.5179 27.8304C12.4375 27.8839 12.2857 27.8304 12.1875 27.6964C12.0893 27.5625 12.0893 27.4107 12.1875 27.3482C12.2857 27.2679 12.4375 27.3304 12.5179 27.4643C12.6161 27.5982 12.6161 27.7589 12.5179 27.8304ZM11.9375 26.9643C11.8571 27.0446 11.7232 27 11.625 26.9107C11.5268 26.7946 11.5089 26.6607 11.5893 26.5982C11.6696 26.5179 11.8036 26.5625 11.9018 26.6518C12 26.7679 12.0179 26.9018 11.9375 26.9643ZM11.3393 26.3036C11.3036 26.3839 11.1875 26.4018 11.0893 26.3393C10.9732 26.2857 10.9196 26.1875 10.9554 26.1071C10.9911 26.0536 11.0893 26.0268 11.2054 26.0714C11.3214 26.1339 11.375 26.2321 11.3393 26.3036Z" fill="white"/>
</svg>
