<svg width="41" height="41" viewBox="0 0 41 41" fill="none" xmlns="http://www.w3.org/2000/svg">
<g clip-path="url(#clip0_236_77)">
<path d="M34.575 34.5887H28.6588V25.305C28.6588 23.0912 28.6125 20.2462 25.565 20.2462C22.48 20.2462 22.01 22.6475 22.01 25.1412V34.5875H16.0862V15.4987H21.7762V18.1025H21.8525C22.6475 16.5987 24.5812 15.0175 27.4662 15.0175C33.4675 15.0175 34.5812 18.9688 34.5812 24.1063V34.5875L34.575 34.5887ZM9.39375 12.89C8.94159 12.8902 8.49385 12.8011 8.07616 12.628C7.65847 12.4548 7.27904 12.201 6.95961 11.881C6.64017 11.561 6.38701 11.1811 6.21463 10.7631C6.04224 10.3451 5.95401 9.89715 5.955 9.445C5.95574 8.76444 6.15826 8.09938 6.53695 7.53391C6.91564 6.96844 7.4535 6.52795 8.08252 6.26814C8.71153 6.00832 9.40346 5.94086 10.0708 6.07427C10.7382 6.20767 11.351 6.53596 11.8318 7.01763C12.3126 7.4993 12.6398 8.11271 12.772 8.78031C12.9041 9.44791 12.8354 10.1397 12.5745 10.7683C12.3135 11.3968 11.8721 11.9339 11.3059 12.3115C10.7397 12.6892 10.0743 12.8905 9.39375 12.89V12.89ZM12.3613 34.5887H6.425V15.5H12.3613V34.5887ZM37.545 0.5H3.45C1.82125 0.5 0.5 1.78875 0.5 3.38375V37.6175C0.5 39.2125 1.82125 40.5012 3.45 40.5012H37.5388C39.165 40.5012 40.5 39.2125 40.5 37.6175V3.38375C40.5 1.78875 39.165 0.5 37.5388 0.5H37.545Z" fill="white"/>
</g>
<defs>
<clipPath id="clip0_236_77">
<rect width="40" height="40" fill="white" transform="translate(0.5 0.5)"/>
</clipPath>
</defs>
</svg>
